<svg xmlns="http://www.w3.org/2000/svg" width="200" height="61"><path d="M8.97 13.234q6.685 0 10.264 2.35t3.58 7.699q0 5.39-3.623 7.784T8.84 33.46H6.728v10.005H0V14.011q2.2-.432 4.658-.604t4.312-.173zm.431 5.736q-.733 0-1.444.043t-1.23.086v8.626h2.114q3.493 0 5.261-.95t1.768-3.536q0-1.25-.453-2.07t-1.293-1.315-2.049-.69-2.674-.194zm37.304 23.72q-1.639.474-4.226.884t-5.434.41q-2.89 0-4.809-.776t-3.04-2.178-1.596-3.342-.474-4.27V20.781h6.426v11.86q0 3.105.819 4.485t3.062 1.38q.69 0 1.466-.065t1.38-.15V20.78h6.426v21.91zm20.57-10.393q0-2.976-1.336-4.766t-3.968-1.79q-.862 0-1.595.065t-1.208.151v11.601q.604.388 1.574.647t1.962.259q4.572 0 4.572-6.167zm6.556-.173q0 2.631-.647 4.787t-1.898 3.709-3.105 2.415-4.27.863q-1.336 0-2.5-.26t-2.243-.732v8.539h-6.426V21.558q.863-.26 1.984-.496t2.35-.41 2.502-.28 2.436-.108q2.803 0 5.003.84t3.709 2.373 2.307 3.73.798 4.916zm11.385 11.342H78.79V20.781h6.426v22.684zm.604-29.239q0 1.768-1.143 2.782T81.98 18.02t-2.695-1.013-1.143-2.782 1.143-2.781 2.695-1.014 2.696 1.014 1.143 2.781zm14.49 29.67q-2.803-.043-4.55-.603T93 41.719t-1.38-2.458-.367-3.256v-24.97L97.68 10v24.71q0 .863.13 1.553t.495 1.165 1.057.776 1.854.388zm5.002-.43V13.578h20.01v5.65H112.04v6.253h11.816v5.65H112.04v12.333h-6.728zm33.38.43q-2.804-.043-4.55-.603t-2.76-1.574-1.38-2.458-.367-3.256v-24.97L136.06 10v24.71q0 .863.129 1.553t.496 1.165 1.057.776 1.854.388zM164.48 32.08q0 2.674-.776 4.895t-2.243 3.795-3.514 2.437-4.593.862q-2.501 0-4.55-.862t-3.515-2.437-2.285-3.795-.82-4.895.841-4.873 2.33-3.752 3.535-2.415 4.464-.862q2.458 0 4.507.862t3.514 2.415 2.286 3.752.82 4.873zm-6.555 0q0-2.975-1.186-4.679t-3.385-1.703-3.407 1.703-1.208 4.68 1.208 4.721 3.407 1.747 3.385-1.747 1.186-4.722zm25.315-1.639q-.863 3.278-1.833 6.512t-2.048 6.512h-5.003q-.776-1.811-1.682-4.312t-1.876-5.456-1.984-6.253-1.962-6.663h6.77l.756 3.386q.41 1.833.862 3.773t.949 3.903 1.013 3.773q.56-1.897 1.1-3.88t1.035-3.904.949-3.708.798-3.343h4.657q.345 1.553.776 3.343t.906 3.708.992 3.903 1.078 3.881q.517-1.81 1.035-3.773t.97-3.903.863-3.773.755-3.386h6.684q-.949 3.364-1.962 6.663t-1.984 6.253-1.898 5.456-1.703 4.312h-5.003q-1.078-3.277-2.113-6.512t-1.897-6.512z" fill="#fff"/></svg>