<svg xmlns="http://www.w3.org/2000/svg" width="200" height="61" viewBox="0 0 200 61" version="1.1">
    <g fill="#ffffff"
       transform="matrix(2.1562697949647984,0,0,2.1562697949647984,-3.450031466305765,-8.285170986997755)">
        <path d="M5.76 9.98 q3.1 0 4.76 1.09 t1.66 3.57 q0 2.5 -1.68 3.61 t-4.8 1.11 l-0.98 0 l0 4.64 l-3.12 0 l0 -13.66 q1.02 -0.2 2.16 -0.28 t2 -0.08 z M5.96 12.64 q-0.34 0 -0.67 0.02 t-0.57 0.04 l0 4 l0.98 0 q1.62 0 2.44 -0.44 t0.82 -1.64 q0 -0.58 -0.21 -0.96 t-0.6 -0.61 t-0.95 -0.32 t-1.24 -0.09 z M23.26 23.64 q-0.76 0.22 -1.96 0.41 t-2.52 0.19 q-1.34 0 -2.23 -0.36 t-1.41 -1.01 t-0.74 -1.55 t-0.22 -1.98 l0 -5.86 l2.98 0 l0 5.5 q0 1.44 0.38 2.08 t1.42 0.64 q0.32 0 0.68 -0.03 t0.64 -0.07 l0 -8.12 l2.98 0 l0 10.16 z M32.8 18.82 q0 -1.38 -0.62 -2.21 t-1.84 -0.83 q-0.4 0 -0.74 0.03 t-0.56 0.07 l0 5.38 q0.28 0.18 0.73 0.3 t0.91 0.12 q2.12 0 2.12 -2.86 z M35.84 18.740000000000002 q0 1.22 -0.3 2.22 t-0.88 1.72 t-1.44 1.12 t-1.98 0.4 q-0.62 0 -1.16 -0.12 t-1.04 -0.34 l0 3.96 l-2.98 0 l0 -13.86 q0.4 -0.12 0.92 -0.23 t1.09 -0.19 t1.16 -0.13 t1.13 -0.05 q1.3 0 2.32 0.39 t1.72 1.1 t1.07 1.73 t0.37 2.28 z M41.120000000000005 24 l-2.98 0 l0 -10.52 l2.98 0 l0 10.52 z M41.400000000000006 10.44 q0 0.82 -0.53 1.29 t-1.25 0.47 t-1.25 -0.47 t-0.53 -1.29 t0.53 -1.29 t1.25 -0.47 t1.25 0.47 t0.53 1.29 z M48.120000000000005 24.2 q-1.3 -0.02 -2.11 -0.28 t-1.28 -0.73 t-0.64 -1.14 t-0.17 -1.51 l0 -11.58 l2.98 -0.48 l0 11.46 q0 0.4 0.06 0.72 t0.23 0.54 t0.49 0.36 t0.86 0.18 z M50.440000000000005 24 l0 -13.86 l9.28 0 l0 2.62 l-6.16 0 l0 2.9 l5.48 0 l0 2.62 l-5.48 0 l0 5.72 l-3.12 0 z M65.92 24.2 q-1.3 -0.02 -2.11 -0.28 t-1.28 -0.73 t-0.64 -1.14 t-0.17 -1.51 l0 -11.58 l2.98 -0.48 l0 11.46 q0 0.4 0.06 0.72 t0.23 0.54 t0.49 0.36 t0.86 0.18 z M77.88000000000001 18.72 q0 1.24 -0.36 2.27 t-1.04 1.76 t-1.63 1.13 t-2.13 0.4 q-1.16 0 -2.11 -0.4 t-1.63 -1.13 t-1.06 -1.76 t-0.38 -2.27 t0.39 -2.26 t1.08 -1.74 t1.64 -1.12 t2.07 -0.4 q1.14 0 2.09 0.4 t1.63 1.12 t1.06 1.74 t0.38 2.26 z M74.84000000000002 18.72 q0 -1.38 -0.55 -2.17 t-1.57 -0.79 t-1.58 0.79 t-0.56 2.17 t0.56 2.19 t1.58 0.81 t1.57 -0.81 t0.55 -2.19 z M86.58000000000001 17.96 q-0.4 1.52 -0.85 3.02 t-0.95 3.02 l-2.32 0 q-0.36 -0.84 -0.78 -2 t-0.87 -2.53 t-0.92 -2.9 t-0.91 -3.09 l3.14 0 q0.16 0.72 0.35 1.57 t0.4 1.75 t0.44 1.81 t0.47 1.75 q0.26 -0.88 0.51 -1.8 t0.48 -1.81 t0.44 -1.72 t0.37 -1.55 l2.16 0 q0.16 0.72 0.36 1.55 t0.42 1.72 t0.46 1.81 t0.5 1.8 q0.24 -0.84 0.48 -1.75 t0.45 -1.81 t0.4 -1.75 t0.35 -1.57 l3.1 0 q-0.44 1.56 -0.91 3.09 t-0.92 2.9 t-0.88 2.53 t-0.79 2 l-2.32 0 q-0.5 -1.52 -0.98 -3.02 t-0.88 -3.02 z"></path>
    </g>
</svg>
