<svg xmlns="http://www.w3.org/2000/svg" width="200" height="79" viewBox="0 0 200 79" version="1.1">
    <g id="SvgjsG2329" fill="#ffffff"
       transform="matrix(3.137562611081036,0,0,3.137562611081036,-3.5140682692387757,-10.33140577964937)">
        <path d="M5.82 18.04 c2.08 0 3.86 -0.36 4.64 -0.54 c-0.38 1.3 -0.64 2.1 -0.64 2.1 c-1.04 0.38 -3.26 0.58 -4.44 0.58 c-1.16 0 -3.38 -0.2 -4.26 -0.58 c0 0 0.2 -2.68 0.96 -6.22 c0.76 -3.56 1.68 -6.22 1.68 -6.22 c1.04 -0.38 3.34 -0.6 4.5 -0.6 c1.18 0 3.32 0.22 4.2 0.6 c0 0 -0.06 0.78 -0.24 2.08 c-0.58 -0.14 -2.38 -0.52 -4.42 -0.52 c-0.86 0 -2.14 0.2 -2.14 0.2 s-0.58 1.96 -1.1 4.46 c-0.54 2.48 -0.8 4.46 -0.8 4.46 s1.2 0.2 2.06 0.2 z M20.3 11.32 c-0.04 1.24 -0.24 2.66 -0.54 4.14 l-0.96 4.54 l-2.48 0 l0.96 -4.54 c0.28 -1.32 0.36 -2.42 0.36 -2.42 s-0.46 -0.16 -1.16 -0.16 c-0.48 0 -1 0.08 -1.38 0.16 l-1.46 6.96 l-2.48 0 l2.82 -13.3 c0.86 0.04 1.88 0.22 2.38 0.5 l-0.78 3.62 c0.48 -0.06 0.92 -0.1 1.36 -0.1 c1.18 0 2.48 0.22 3.36 0.6 z M28.82 15.46 l-0.24 1.1 l-5.12 0 c-0.12 0.78 -0.16 1.34 -0.16 1.34 s0.46 0.14 1.16 0.14 c1.78 0 3.16 -0.3 3.82 -0.48 c-0.18 0.7 -0.4 1.4 -0.66 2.04 c-1.04 0.38 -2.42 0.58 -3.6 0.58 s-2.5 -0.2 -3.38 -0.58 c0.06 -1.24 0.24 -2.66 0.56 -4.14 c0.3 -1.48 0.74 -2.9 1.2 -4.14 c1.04 -0.38 2.44 -0.6 3.62 -0.6 s2.48 0.22 3.36 0.6 c-0.04 1.24 -0.26 2.66 -0.56 4.14 z M25.560000000000002 12.879999999999999 c-0.7 0 -1.24 0.16 -1.24 0.16 s-0.18 0.56 -0.4 1.36 l2.62 0 c0.14 -0.8 0.18 -1.36 0.18 -1.36 s-0.46 -0.16 -1.16 -0.16 z M35.74 15.559999999999999 c-1.4 1.72 -2.6 3.26 -3.78 4.44 l-3.12 0 c0.56 -0.58 1.84 -1.9 3.56 -3.82 c0.5 -0.58 1.4 -1.64 2.42 -2.88 c-0.94 -2.26 -2.2 -5.38 -2.72 -6.62 l2.92 0 c0.46 1.18 1.06 2.78 1.68 4.34 c1.3 -1.56 2.58 -3.16 3.52 -4.34 l2.92 0 c-1.04 1.24 -3.62 4.36 -5.52 6.62 c0.5 1.24 0.92 2.3 1.2 2.88 c0.9 1.92 1.62 3.24 1.96 3.82 l-3.14 0 c-0.7 -1.18 -1.26 -2.72 -1.9 -4.44 z M47.10000000000001 6.9399999999999995 c0 0.3 -0.04 0.7 -0.12 1.04 c-0.06 0.34 -0.2 0.74 -0.32 1.04 c-0.3 0.08 -0.96 0.14 -1.3 0.14 c-0.36 0 -1 -0.06 -1.26 -0.14 c-0.02 -0.3 0.06 -0.7 0.12 -1.04 c0.08 -0.34 0.18 -0.74 0.32 -1.04 c0.3 -0.08 0.96 -0.14 1.32 -0.14 c0.34 0 0.98 0.06 1.24 0.14 z M41.82000000000001 20 l1.9 -8.96 c0.84 0.04 1.84 0.24 2.36 0.5 l-1.78 8.46 l-2.48 0 z M55.580000000000005 11.04 c-0.22 0.72 -0.6 1.52 -0.96 2.16 l-3.16 0 l-1.44 6.8 l-2.48 0 l1.44 -6.8 l-2.2 0 c0.22 -0.72 0.6 -1.52 0.98 -2.16 l1.7 0 c0.3 -1.42 0.68 -2.76 1.16 -3.96 c1.04 -0.38 2.42 -0.6 3.6 -0.6 c0.44 0 0.9 0.04 1.34 0.1 c-0.24 0.72 -0.6 1.52 -0.98 2.14 c-0.18 -0.04 -0.48 -0.08 -0.82 -0.08 c-0.7 0 -1.22 0.16 -1.22 0.16 s-0.34 1 -0.62 2.24 l3.66 0 z M60.040000000000006 15.620000000000001 c0.64 -1.3 1.64 -3.42 2.2 -4.58 l2.56 0 c-0.52 1.04 -1.98 4.04 -2.5 5.06 c-0.66 1.32 -1.1 2.1 -1.58 2.82 l-4.04 6.5 c-0.68 -0.02 -1.66 -0.24 -2.34 -0.54 l3.08 -4.86 c-0.1 0 -0.2 0 -0.24 -0.02 c-0.4 -1.16 -0.58 -1.92 -0.74 -3.9 c-0.08 -1.02 -0.26 -4.02 -0.34 -5.06 l2.56 0 c0.04 1.16 0.16 3.28 0.24 4.58 c0.02 0.62 0.08 1.3 0.18 1.92 c0.32 -0.62 0.66 -1.3 0.96 -1.92 z "></path>
    </g>
</svg>
