<svg xmlns="http://www.w3.org/2000/svg" width="200" height="72" viewBox="0 0 200 72">
    <g id="SvgjsG2511" fill="#fff"
       transform="matrix(2.7043850319731266,0,0,2.7043850319731266,-2.7043850319731266,-12.933176095855252)">
        <path d="M7.92 24.28 q-3.38 0 -5.15 -1.88 t-1.77 -5.34 q0 -1.72 0.54 -3.07 t1.48 -2.28 t2.24 -1.41 t2.82 -0.48 q0.88 0 1.6 0.13 t1.26 0.3 t0.9 0.35 t0.52 0.28 l-0.9 2.52 q-0.64 -0.34 -1.49 -0.58 t-1.93 -0.24 q-0.72 0 -1.41 0.24 t-1.22 0.77 t-0.85 1.37 t-0.32 2.04 q0 0.96 0.21 1.79 t0.68 1.43 t1.23 0.95 t1.84 0.35 q0.68 0 1.22 -0.08 t0.96 -0.19 t0.74 -0.25 t0.58 -0.26 l0.86 2.5 q-0.66 0.4 -1.86 0.72 t-2.78 0.32 z M14.360000000000001 24 l0 -15.04 l2.98 -0.48 l0 5.04 q0.3 -0.1 0.77 -0.19 t0.91 -0.09 q1.28 0 2.13 0.35 t1.36 0.99 t0.72 1.52 t0.21 1.96 l0 5.94 l-2.98 0 l0 -5.58 q0 -1.44 -0.37 -2.04 t-1.37 -0.6 q-0.4 0 -0.75 0.07 t-0.63 0.15 l0 8 l-2.98 0 z M25.64 18.82 q0 -1.4 0.43 -2.45 t1.13 -1.75 t1.61 -1.06 t1.87 -0.36 q2.24 0 3.54 1.37 t1.3 4.03 q0 0.26 -0.02 0.57 t-0.04 0.55 l-6.76 0 q0.1 0.92 0.86 1.46 t2.04 0.54 q0.82 0 1.61 -0.15 t1.29 -0.37 l0.4 2.42 q-0.24 0.12 -0.64 0.24 t-0.89 0.21 t-1.05 0.15 t-1.12 0.06 q-1.42 0 -2.47 -0.42 t-1.74 -1.15 t-1.02 -1.73 t-0.33 -2.16 z M32.64 17.68 q-0.02 -0.38 -0.13 -0.74 t-0.34 -0.64 t-0.58 -0.46 t-0.87 -0.18 q-0.5 0 -0.86 0.17 t-0.6 0.45 t-0.37 0.65 t-0.19 0.75 l3.94 0 z M45.980000000000004 24 q-0.58 -1.16 -1.27 -2.35 t-1.59 -2.43 q-0.28 0.36 -0.71 1 t-0.86 1.36 t-0.81 1.38 t-0.56 1.04 l-3.56 0 q0.88 -1.62 2.05 -3.4 t2.61 -3.78 l-4.46 -6.68 l3.78 0 l2.7 4.32 l2.64 -4.32 l3.56 0 l-4.4 6.72 q1.68 2.18 2.82 4.03 t1.8 3.11 l-3.74 0 z M54.300000000000004 24 l-2.98 0 l0 -10.52 l2.98 0 l0 10.52 z M54.58 10.44 q0 0.82 -0.53 1.29 t-1.25 0.47 t-1.25 -0.47 t-0.53 -1.29 t0.53 -1.29 t1.25 -0.47 t1.25 0.47 t0.53 1.29 z M61.660000000000004 8.48 q0.84 0 1.54 0.17 t1.08 0.33 l-0.58 2.38 q-0.4 -0.18 -0.87 -0.27 t-0.87 -0.09 q-0.54 0 -0.91 0.15 t-0.58 0.41 t-0.3 0.62 t-0.09 0.78 l0 0.52 l3.68 0 l0 2.48 l-3.68 0 l0 8.04 l-2.98 0 l0 -11.08 q0 -2.04 1.15 -3.24 t3.41 -1.2 z M74.88 13.48 q-0.9 3.04 -1.88 5.7 t-2.14 5.16 q-0.42 0.9 -0.84 1.53 t-0.92 1.04 t-1.13 0.6 t-1.47 0.19 q-0.7 0 -1.29 -0.13 t-0.97 -0.29 l0.52 -2.38 q0.46 0.16 0.82 0.22 t0.76 0.06 q0.8 0 1.23 -0.43 t0.73 -1.19 q-1.02 -2 -2.04 -4.49 t-1.92 -5.59 l3.16 0 q0.2 0.78 0.47 1.69 t0.57 1.84 t0.61 1.81 t0.59 1.6 q0.26 -0.72 0.54 -1.6 t0.55 -1.81 t0.52 -1.84 t0.45 -1.69 l3.08 0 z"></path>
    </g>
</svg>
